# xmcd CD database file
#
# Track frame offsets:
#	150
#	17712
#	35922
#	53660
#	69592
#	85202
#	99271
#	115243
#	135202
#
# Disc length: 1950 seconds
#
# Revision: 0
# Processed by: cddbd v1.5.2PL0 Copyright (c) Steve Scherf et al.
# Submitted via: CDex 1.77
#
DISCID=6d079c09
DTITLE=Shljuka - Iluzija
DYEAR=2017
DGENRE=Jazz
TTITLE0=Shljuka - Iluzija
TTITLE1=Shljuka - Ideja Bez Lica
TTITLE2=Shljuka - Kakav San
TTITLE3=Shljuka - Tu Sam
TTITLE4=Shljuka - Sad
TTITLE5=Shljuka - Nema Tajni
TTITLE6=Shljuka - Otkriven Plam
TTITLE7=Shljuka - Iz Dana u Dan
TTITLE8=Shljuka - Kraj
EXTD=YEAR: 2017
EXTT0=
EXTT1=
EXTT2=
EXTT3=
EXTT4=
EXTT5=
EXTT6=
EXTT7=
EXTT8=
PLAYORDER=
